<?xml version="1.0" encoding="iso-8859-1"?>
<!-- Uploaded to: SVG Repo, www.svgrepo.com, Generator: SVG Repo Mixer Tools -->
<svg fill="#000000" version="1.1" id="Layer_1" xmlns="http://www.w3.org/2000/svg" xmlns:xlink="http://www.w3.org/1999/xlink" 
	 viewBox="0 0 512 512" xml:space="preserve">
<g>
	<g>
		<rect x="66.783" y="100.174" width="44.522" height="33.391"/>
	</g>
</g>
<g>
	<g>
		<rect y="166.957" width="33.391" height="178.087"/>
	</g>
</g>
<g>
	<g>
		<rect x="33.391" y="345.043" width="33.391" height="33.391"/>
	</g>
</g>
<g>
	<g>
		<rect x="66.783" y="378.435" width="44.522" height="33.391"/>
	</g>
</g>
<g>
	<g>
		<rect x="89.044" y="233.739" width="44.522" height="44.522"/>
	</g>
</g>
<g>
	<g>
		<polygon points="378.435,166.957 378.435,233.739 345.043,233.739 345.043,166.957 311.652,166.957 311.652,233.739 
			278.261,233.739 278.261,166.957 244.87,166.957 244.87,233.739 211.478,233.739 211.478,66.783 111.304,66.783 111.304,100.174 
			178.087,100.174 178.087,411.826 111.304,411.826 111.304,445.217 211.478,445.217 211.478,267.13 244.87,267.13 244.87,345.043 
			278.261,345.043 278.261,267.13 311.652,267.13 311.652,345.043 345.043,345.043 345.043,267.13 378.435,267.13 378.435,345.043 
			411.826,345.043 411.826,166.957 		"/>
	</g>
</g>
<g>
	<g>
		<rect x="411.826" y="133.565" width="66.783" height="33.391"/>
	</g>
</g>
<g>
	<g>
		<rect x="478.609" y="166.957" width="33.391" height="66.783"/>
	</g>
</g>
<g>
	<g>
		<rect x="445.217" y="233.739" width="33.391" height="44.522"/>
	</g>
</g>
<g>
	<g>
		<rect x="478.609" y="278.261" width="33.391" height="66.783"/>
	</g>
</g>
<g>
	<g>
		<rect x="411.826" y="345.043" width="66.783" height="33.391"/>
	</g>
</g>
<g>
	<g>
		<rect x="33.391" y="133.565" width="33.391" height="33.391"/>
	</g>
</g>
</svg>